<svg width="500" height="502" viewBox="0 0 500 502" fill="none" xmlns="http://www.w3.org/2000/svg">
<path fill-rule="evenodd" clip-rule="evenodd" d="M255.525 37.674C145.865 68.5429 75.2251 175.993 93.6651 283.874C116.82 419.361 253.58 502.391 381.04 458.343C418.555 445.379 418.29 425.625 380.335 405.951C361.695 396.294 327.43 362.504 313.835 340.37C301.725 320.661 290 276.482 290 250.559C290 224.636 301.725 180.458 313.835 160.749C327.43 138.614 361.695 104.824 380.335 95.1673C403.47 83.1755 411.57 72.9928 407.705 60.7755C400.355 37.5687 306.505 23.3219 255.525 37.674ZM250.24 80.9506C223.175 89.5397 212.6 96.5804 184.515 124.728C155.675 153.633 149.585 163.004 140.52 192.419C127.315 235.27 127.225 265.548 140.17 307.556C160.775 374.426 226.685 424.542 301.025 429.874C319.71 431.212 335 430.631 335 428.582C335 426.527 323.915 412.696 310.365 397.838C263.225 346.142 242.75 281.102 253.61 217.55C260.93 174.71 279.715 136.895 310.365 103.28C323.915 88.4222 335 74.892 335 73.2133C335 66.3931 280.425 71.3792 250.24 80.9506Z" fill="black"/>
</svg>
