<svg width="500" height="500" viewBox="0 0 500 500" fill="none" xmlns="http://www.w3.org/2000/svg">
<path fill-rule="evenodd" clip-rule="evenodd" d="M236.725 57.0903C234.878 61.9063 234.219 74.7865 235.27 85.713C236.868 102.435 239.516 105.577 252.016 105.577C265.651 105.577 266.862 103.397 266.862 78.8543C266.862 55.6473 265.098 51.8824 253.477 50.2315C245.745 49.1329 238.667 52.0308 236.725 57.0903ZM110.684 109.734C100.132 120.286 101.913 128.683 117.875 143.677C145.857 169.966 170.916 144.906 144.627 116.925C129.633 100.963 121.236 99.1812 110.684 109.734ZM359.589 116.723C343.68 133.659 344.939 152.335 362.154 154.817C379.898 157.371 405 128.926 396.668 115.702C386.989 100.327 374.678 100.666 359.589 116.723ZM213.304 158.392C203.447 162.686 186.879 175.887 176.487 187.722C143.291 225.525 143.297 276.613 176.504 314.428C209.943 352.51 252.301 361.644 296.162 340.23C331.649 322.902 349.999 292.509 349.999 251.066C349.999 225.103 346.65 212.585 335.153 195.614C308.769 156.652 254.997 140.227 213.304 158.392ZM52.3933 241.814C45.0298 261.001 54.6617 269.659 81.2358 267.741C103.766 266.114 106.527 264.291 106.527 251.066C106.527 237.841 103.766 236.018 81.2358 234.391C62.6132 233.043 55.0062 235.003 52.3933 241.814ZM396.817 241.814C389.453 261.001 399.085 269.659 425.659 267.741C448.189 266.114 450.95 264.291 450.95 251.066C450.95 237.841 448.189 236.018 425.659 234.391C407.036 233.043 399.429 235.003 396.817 241.814ZM115.951 360.379C101.295 375.979 102.37 391.222 118.57 397.44C131.385 402.357 157.953 376.424 155.768 361.145C153.232 343.46 132.222 343.051 115.951 360.379ZM350.99 350.04C342.914 358.11 347.451 374.096 361.573 387.363C387.761 411.965 412.915 386.81 388.313 360.622C375.047 346.501 359.061 341.964 350.99 350.04ZM236.725 401.514C234.878 406.33 234.219 419.21 235.27 430.136C236.868 446.859 239.516 450 252.016 450C265.651 450 266.862 447.821 266.862 423.278C266.862 400.071 265.098 396.306 253.477 394.655C245.745 393.556 238.667 396.454 236.725 401.514Z" fill="#F3F4F6"/>
</svg>
