<svg width="500" height="500" viewBox="0 0 500 500" fill="none" xmlns="http://www.w3.org/2000/svg">
<path fill-rule="evenodd" clip-rule="evenodd" d="M237.125 86.675C235.57 90.73 235.015 101.575 235.9 110.775C237.245 124.855 239.475 127.5 250 127.5C261.48 127.5 262.5 125.665 262.5 105C262.5 85.46 261.015 82.29 251.23 80.9C244.72 79.975 238.76 82.415 237.125 86.675ZM131 131C122.115 139.885 123.615 146.955 137.055 159.58C160.615 181.715 181.715 160.615 159.58 137.055C146.955 123.615 139.885 122.115 131 131ZM340.575 136.885C327.18 151.145 328.24 166.87 342.735 168.96C357.675 171.11 378.81 147.16 371.795 136.025C363.645 123.08 353.28 123.365 340.575 136.885ZM217.405 171.97C209.105 175.585 195.155 186.7 186.405 196.665C158.455 228.495 158.46 271.51 186.42 303.35C214.575 335.415 250.24 343.105 287.17 325.075C317.05 310.485 332.5 284.895 332.5 250C332.5 228.14 329.68 217.6 320 203.31C297.785 170.505 252.51 156.675 217.405 171.97ZM81.9204 242.21C75.7204 258.365 83.8304 265.655 106.205 264.04C125.175 262.67 127.5 261.135 127.5 250C127.5 238.865 125.175 237.33 106.205 235.96C90.5254 234.825 84.1204 236.475 81.9204 242.21ZM371.92 242.21C365.72 258.365 373.83 265.655 396.205 264.04C415.175 262.67 417.5 261.135 417.5 250C417.5 238.865 415.175 237.33 396.205 235.96C380.525 234.825 374.12 236.475 371.92 242.21ZM135.435 342.04C123.095 355.175 124 368.01 137.64 373.245C148.43 377.385 170.8 355.55 168.96 342.685C166.825 327.795 149.135 327.45 135.435 342.04ZM333.335 333.335C326.535 340.13 330.355 353.59 342.245 364.76C364.295 385.475 385.475 364.295 364.76 342.245C353.59 330.355 340.13 326.535 333.335 333.335ZM237.125 376.675C235.57 380.73 235.015 391.575 235.9 400.775C237.245 414.855 239.475 417.5 250 417.5C261.48 417.5 262.5 415.665 262.5 395C262.5 375.46 261.015 372.29 251.23 370.9C244.72 369.975 238.76 372.415 237.125 376.675Z" fill="black"/>
</svg>
