<svg width="500" height="500" viewBox="0 0 500 500" fill="none" xmlns="http://www.w3.org/2000/svg">
<path fill-rule="evenodd" clip-rule="evenodd" d="M143 54.9505C130.706 60.9192 122.97 78.8047 126.125 93.9609C127.832 102.154 155.524 129.029 212.831 178.112C259.141 217.773 297.031 251.398 297.031 252.831C297.031 254.263 259.141 287.888 212.831 327.55C123.748 403.841 116.942 412.899 130.243 437.367C138.981 453.44 151.6 458.232 164.163 450.258C176.522 442.409 331.755 309.524 356.634 285.497C370.545 272.06 375 264.138 375 252.831C375 234.794 369.434 229.138 256.159 132.055C181.768 68.2994 157.78 49.0755 153.808 50.0338C153.056 50.2161 148.195 52.4296 143 54.9505Z" fill="white"/>
</svg>
